<?xml version="1.0" ?><svg enable-background="new 0 0 512 512" id="Layer_1" version="1.1" viewBox="0 0 512 512" xml:space="preserve" xmlns="http://www.w3.org/2000/svg" xmlns:xlink="http://www.w3.org/1999/xlink"><g><g><g><path d="M45.6,283.3c47.6,0,94.9,0,142.5,0c75.4,0,150.7,0,226.1,0c17.4,0,34.8,0,52.2,0     c14,0,27.6-12.4,26.9-26.9c-0.7-14.5-11.8-26.9-26.9-26.9c-47.6,0-94.9,0-142.5,0c-75.4,0-150.7,0-226.1,0c-17.4,0-34.8,0-52.2,0     c-14,0-27.6,12.4-26.9,26.9C19.4,270.9,30.5,283.3,45.6,283.3L45.6,283.3z" fill="#efefef"/></g></g><g><g><path d="M445.2,240c-48.1,48.1-96.2,96.2-144.5,144.5c-6.8,6.8-13.6,13.6-20.5,20.5c-10.2,10.2-10.2,27.8,0,38     s27.8,10.2,38,0c48.1-48.1,96.2-96.2,144.5-144.5c6.8-6.8,13.6-13.6,20.5-20.5c10.2-10.2,10.2-27.8,0-38     C472.9,229.6,455.5,229.6,445.2,240L445.2,240z" fill="#efefef"/></g></g><g><g><path d="M482.4,233.9c-48.1-48.1-96.2-96.2-144.5-144.5c-6.8-6.8-13.6-13.6-20.5-20.5c-10.2-10.2-27.8-10.2-38,0     s-10.2,27.8,0,38c48.1,48.1,96.2,96.2,144.5,144.5c6.8,6.8,13.6,13.6,20.5,20.5c10.2,10.2,27.8,10.2,38,0     C492.8,261.7,492.8,244.3,482.4,233.9L482.4,233.9z" fill="#efefef"/></g></g></g></svg>