<svg width="32" height="31" viewBox="0 0 32 31" fill="none" xmlns="http://www.w3.org/2000/svg">
<path d="M14.9983 30.3236C24.1341 30.3236 31.1526 23.6081 31.1526 15.3241C31.1526 7.04019 24.4372 0.324707 16.1532 0.324707C12.4771 0.324707 9.11489 1.65201 6.5065 3.84698L3.60116 0.943361C3.19661 0.541045 2.65634 0.325861 2.10929 0.325861C1.83606 0.325861 1.5634 0.378792 1.30142 0.485879C0.513802 0.812621 0 1.58221 0 2.43515V13.2148C0 14.3777 0.945901 15.3253 2.10929 15.3253H12.8901C13.742 15.3253 14.5115 14.8115 14.8383 14.0227C15.1651 13.2339 14.9848 12.3258 14.382 11.7241L11.5099 8.84979C12.9854 7.76586 14.6147 7.13257 16.1533 7.13257C20.6141 7.13257 24.6896 10.114 24.6896 16.4869C24.6896 21.4312 21.8029 25.8537 14.9708 28.6965L14.4197 28.8555C14.0606 28.9591 13.8327 29.3114 13.8856 29.6815C13.9384 30.0515 14.2559 30.3259 14.6297 30.3247L14.9983 30.3236Z" fill="#276677"/>
</svg>
