<svg width="42" height="33" viewBox="0 0 42 33" fill="none" xmlns="http://www.w3.org/2000/svg">
<path d="M30.6642 0C31.2102 1.23993 31.5639 3.29933 31.0361 4.80713C33.1945 6.65 33.9365 11.13 32.8944 14.791C35.9707 15.0257 39.6349 14.6781 42 15.6221C39.7889 15.3379 36.7691 14.7803 33.9173 14.9744C33.3774 15.0113 32.5766 14.9539 32.6158 15.7141C35.917 15.9735 39.1977 16.2554 41.9081 17.1015C39.2196 16.6628 35.9562 15.9936 32.6158 15.9003C31.2359 18.6233 28.4587 19.9621 24.6251 20.244C25.0371 21.1405 25.8263 21.4816 26.019 22.9245C26.3065 25.0791 25.5691 28.2357 26.2967 29.6721C26.6457 30.3604 27.2146 30.3786 27.5982 30.9666C26.6593 32.0782 24.3315 30.842 24.0665 29.6721C23.6124 27.6677 24.7581 24.5602 23.5102 23.2017C23.5979 25.3876 22.9931 28.4583 23.6031 30.4113C23.8434 31.1794 24.5373 31.4757 24.3465 32.1683C19.9822 32.6116 21.8064 26.5197 21.0929 22.9236C20.4344 22.9707 20.7237 23.9097 20.7214 24.311C20.7027 27.8217 21.4401 32.6382 17.6554 32.1683C17.5448 31.4305 18.1631 31.1794 18.3988 30.5055C19.089 28.5301 18.2695 25.5864 18.5859 23.2022C17.1416 24.2909 18.7376 28.0929 17.8425 30.0417C17.3269 31.1635 15.6651 31.6521 14.4046 31.1505C14.5689 30.3161 15.4313 30.4505 15.7971 29.6725C16.3086 28.5875 15.8009 27.0247 15.9833 25.4207C13.3098 25.9541 11.2359 25.3433 10.2209 23.6642C9.76687 22.9105 9.6544 22.0211 9.1056 21.3537C8.5596 20.6855 7.68693 20.5954 7.434 19.6905C10.745 18.8939 10.8719 23.0986 13.8455 23.2022C14.7574 23.2349 15.2315 22.939 16.0753 22.7407C16.3114 21.6804 16.8168 20.8899 17.5621 20.3359C13.8614 19.8291 10.8057 18.6765 9.38467 15.8998C6.02093 16.0655 2.9428 16.5144 0.0919333 17.1929C2.6796 16.2531 5.87113 15.9161 9.29227 15.8055C9.09067 14.5941 7.3234 14.9273 6.22627 14.9739C4.1874 15.0645 1.62073 15.3179 0 15.6221C2.3492 14.7845 5.64573 14.889 8.8284 14.8825C7.85493 11.8305 8.19233 6.98227 10.3152 5.17673C9.71367 3.66053 9.90033 1.18067 10.6867 0C13.0569 0.1064 14.4942 1.14007 15.9833 2.1266C17.8299 1.6016 19.7717 1.34027 22.302 1.47933C23.366 1.53813 24.4725 2.01647 25.2742 1.94087C26.0605 1.86713 26.9271 0.984666 27.6906 0.647733C28.6851 0.2086 29.5265 0.0410667 30.6642 0Z" fill="#14B0B0"/>
</svg>
