<svg width="32" height="30" viewBox="0 0 32 30" fill="none" xmlns="http://www.w3.org/2000/svg">
<path d="M31.3953 18.3931V30H24.6663V19.1703C24.6663 16.4498 23.693 14.5933 21.2578 14.5933C19.3981 14.5933 18.2916 15.8445 17.805 17.055C17.6274 17.4876 17.5817 18.09 17.5817 18.6956V30H10.8502C10.8502 30 10.9409 11.6581 10.8502 9.75767H17.5807V12.6269C17.5671 12.6485 17.5493 12.6715 17.5364 12.6924H17.5807V12.6269C18.4748 11.2497 20.0721 9.28221 23.6466 9.28221C28.0751 9.28221 31.3953 12.1755 31.3953 18.3931ZM3.80895 0C1.50628 0 0 1.51047 0 3.49674C0 5.43977 1.46267 6.99593 3.71965 6.99593H3.76465C6.11198 6.99593 7.57186 5.44012 7.57186 3.49674C7.52756 1.51047 6.11198 0 3.80895 0ZM0.399767 30H7.12849V9.75767H0.399767V30Z" fill="#14B0B0"/>
</svg>
