<svg width="31" height="30" viewBox="0 0 31 30" fill="none" xmlns="http://www.w3.org/2000/svg">
<path d="M28.286 11.9531L21.5038 18.8085C18.5717 21.7724 14.1445 21.2719 12.0818 19.1857C11.4569 18.5534 11.6272 17.3583 12.461 16.5173C13.1759 15.7934 13.9561 15.5346 15.0973 16.1364C16.2385 16.7395 17.596 16.6638 18.4896 15.7616L25.2717 8.90621C26.3103 7.8552 26.3103 6.14739 25.2717 5.09763C24.2331 4.04662 22.5424 4.04662 21.5038 5.09763L17.8676 8.77191C16.73 8.1884 15.3992 7.86129 14.0442 7.86129C13.5599 7.86129 13.0829 7.91012 12.6131 7.98949L18.4896 2.05077C21.1947 -0.683591 25.5808 -0.683591 28.286 2.05077C30.9911 4.78513 30.9911 9.21871 28.286 11.9531Z" fill="#276677"/>
<path d="M16.5312 22.5159C15.1762 22.5159 13.8454 22.19 12.7078 21.6065L9.44719 24.9024C8.40803 25.9522 6.71849 25.9522 5.67934 24.9024C4.64019 23.8526 4.64019 22.1436 5.67934 21.0938L12.0871 14.6168C12.9795 13.7147 14.3369 13.6378 15.4781 14.2421C16.6194 14.8439 17.3995 14.5851 18.1156 13.8612C18.9489 13.0177 19.1191 11.8239 18.4948 11.1939C16.431 9.10653 12.0038 8.60607 9.0721 11.57L2.66507 18.047C-0.040049 20.7801 -0.040049 25.2149 2.66507 27.9493C5.37019 30.6836 9.75634 30.6836 12.4615 27.9493L17.9623 22.3877C17.4925 22.4671 17.0167 22.5159 16.5312 22.5159Z" fill="#276677"/>
</svg>
