<svg width="31" height="22" viewBox="0 0 31 22" fill="none" xmlns="http://www.w3.org/2000/svg">
<path d="M2.4506 1.28202L13.6171 10.1271C14.1234 10.5277 14.8212 10.7058 15.499 10.6724C16.1767 10.7047 16.8745 10.5277 17.3808 10.1271L28.5473 1.28202C29.4398 0.576465 29.2373 0 28.1022 0H15.5001H2.89685C1.76062 0 1.55919 0.576465 2.4506 1.28202Z" fill="#14B0B0"/>
<path d="M29.353 3.61553L17.1504 12.879C16.6941 13.2229 16.0965 13.3898 15.5 13.3832C14.9035 13.3898 14.3059 13.2218 13.8496 12.879L1.64704 3.61553C0.741169 2.92889 0 3.29725 0 4.43349V19.6341C0 20.7704 0.930356 21.6996 2.06659 21.6996H15.5H28.9334C30.0696 21.6996 31 20.7692 31 19.6341V4.43349C31.0011 3.29725 30.2599 2.92889 29.353 3.61553Z" fill="#14B0B0"/>
</svg>
