<svg width="38" height="26" viewBox="0 0 38 26" fill="none" xmlns="http://www.w3.org/2000/svg">
<path d="M3.92835 16.6158H19.1332L19.134 19.7116V23.6978C19.134 23.8348 19.1581 23.9673 19.1916 24.0952C19.2017 24.1321 19.2134 24.1682 19.2251 24.2029C19.2593 24.303 19.303 24.3978 19.3544 24.4881C19.3707 24.516 19.3832 24.5438 19.4011 24.5694C19.4665 24.6695 19.5413 24.7644 19.6269 24.8479C19.6347 24.8547 19.6433 24.8584 19.6511 24.8645C19.7679 24.9751 19.9026 25.0722 20.0537 25.1467C20.6176 25.4245 21.2959 25.3748 21.8076 25.0143L37.3061 14.1342C37.7422 13.8271 38 13.3386 38 12.817C38 12.2954 37.7422 11.8069 37.3061 11.5013L21.8069 0.62198C21.4938 0.401443 21.1184 0.311874 20.7461 0.326175H20.7438C20.6316 0.332197 20.521 0.341229 20.412 0.369078C20.2882 0.393917 20.169 0.430798 20.0522 0.488002C19.4883 0.765743 19.1332 1.32725 19.1332 1.93918L19.134 9.02044H3.92913C1.75779 9.02044 0 10.72 0 12.8192C0.000778816 14.9155 1.75779 16.6158 3.92835 16.6158Z" fill="#276677"/>
</svg>
