<svg width="37" height="30" viewBox="0 0 37 30" fill="none" xmlns="http://www.w3.org/2000/svg">
<path fill-rule="evenodd" clip-rule="evenodd" d="M33.1362 7.47212C33.1504 7.79627 33.1578 8.12367 33.1578 8.45108C33.1578 18.4594 25.5404 30 11.6098 30C7.3321 30 3.35157 28.7466 0 26.597C0.592404 26.6669 1.19544 26.7035 1.80718 26.7035C5.35475 26.7035 8.6201 25.4918 11.2123 23.4608C7.89858 23.4003 5.10162 21.2097 4.13778 18.2019C4.60089 18.2902 5.07481 18.3374 5.56253 18.3374C6.25285 18.3374 6.92278 18.245 7.55825 18.0715C4.09365 17.3759 1.48303 14.3151 1.48303 10.6459C1.48303 10.6135 1.48303 10.5823 1.48303 10.55C2.50401 11.1176 3.67247 11.4579 4.91432 11.4977C2.88204 10.1397 1.54447 7.82097 1.54447 5.1932C1.54447 3.80606 1.91811 2.50515 2.56975 1.38609C6.30576 5.9686 9.81668 11.7358 16.1115 12.0523C15.9823 11.4977 17.9845 8.16674 17.9845 7.57328C17.9845 3.39033 21.3759 0 25.5577 0C27.7363 0 29.7041 0.919721 31.0858 2.39203C32.8112 2.05162 34.432 1.42159 35.8956 0.553555C35.3302 2.32189 34.1292 3.80598 32.5656 4.74398C34.0971 4.5609 35.5574 4.15377 36.9155 3.55065C35.8998 5.07042 34.6161 6.40368 33.1362 7.47212Z" fill="#14B0B0"/>
</svg>
